<?xml version="1.0" encoding="UTF-8" standalone="no"?>
<!-- Created with Inkscape (http://www.inkscape.org/) -->

<svg
   width="34.672657mm"
   height="32.950855mm"
   viewBox="0 0 34.672657 32.950855"
   version="1.1"
   id="svg1"
   inkscape:version="1.4.2 (f4327f4, 2025-05-13)"
   sodipodi:docname="important.svg"
   xmlns:inkscape="http://www.inkscape.org/namespaces/inkscape"
   xmlns:sodipodi="http://sodipodi.sourceforge.net/DTD/sodipodi-0.dtd"
   xmlns="http://www.w3.org/2000/svg"
   xmlns:svg="http://www.w3.org/2000/svg">
  <sodipodi:namedview
     id="namedview1"
     pagecolor="#ffffff"
     bordercolor="#000000"
     borderopacity="0.25"
     inkscape:showpageshadow="2"
     inkscape:pageopacity="0.0"
     inkscape:pagecheckerboard="0"
     inkscape:deskcolor="#d1d1d1"
     inkscape:document-units="mm"
     inkscape:zoom="0.68862935"
     inkscape:cx="41.38656"
     inkscape:cy="83.4992"
     inkscape:window-width="1920"
     inkscape:window-height="991"
     inkscape:window-x="-9"
     inkscape:window-y="-9"
     inkscape:window-maximized="1"
     inkscape:current-layer="layer1" />
  <defs
     id="defs1" />
  <g
     inkscape:label="Layer 1"
     inkscape:groupmode="layer"
     id="layer1"
     transform="translate(-94.021741,-126.43731)">
    <g
       id="g38"
       transform="matrix(0.26458333,0,0,0.26458333,72.697522,55.90498)">
      <path
         d="m 145.15352,266.58506 c 8.89022,-0.34882 12.42002,14.13539 14.64472,20.7841 2.13603,6.38427 4.07855,12.8575 6.31028,19.24635 4.34453,0.0795 9.53834,-0.55029 14.02411,-0.63589 4.61631,-0.2568 10.09169,0.20483 14.57348,0.31795 27.02224,0.6848 17.15984,15.76577 1.81901,25.99197 -3.4821,2.32039 -12.12775,8.44388 -15.564,11.29621 3.66554,10.05194 7.22407,20.70614 9.38854,31.19526 0.86212,4.16079 1.35126,8.81073 -1.21675,12.5099 -1.02721,1.47661 -2.46101,2.42738 -4.25557,2.66584 -8.52458,1.13115 -30.65964,-16.32829 -37.8672,-21.79755 l -0.41853,-0.44634 c -4.15009,-0.77958 -41.05643,40.06713 -44.1619,15.57011 0.0128,-1.32375 0.35494,-2.75144 0.50382,-4.04462 1.28921,-11.23201 5.28828,-22.86144 8.46528,-33.69296 -1.9144,-1.25038 -3.78966,-2.5619 -5.62395,-3.92539 -7.379071,-5.42952 -19.668548,-13.61965 -24.172356,-21.72418 -0.582389,-1.04861 -0.822376,-2.7759 -1.007029,-3.98654 0.648424,-1.27789 1.322833,-2.58941 2.378165,-3.58605 4.723618,-4.46651 35.03567,-4.02322 42.44347,-3.97431 1.49006,-9.00272 7.98316,-26.45758 11.95227,-34.70579 1.58178,-3.28645 4.12992,-6.01772 7.78414,-7.05807 z"
         id="path21"
         style="stroke-width:0.305716" />
      <path
         fill="#fbfcf6"
         d="m 145.55065,273.508 c 5.39313,3.31946 11.4298,30.26986 14.91068,37.49148 l 2.1339,1.6845 c 13.37569,1.67532 27.61074,-1.4491 41.80208,2.45184 -8.01587,10.24148 -26.53003,18.95745 -30.39581,27.15981 1.25313,6.02872 10.86667,36.4872 9.28306,39.95096 -4.79668,2.33262 -30.70153,-21.00268 -37.47894,-22.65049 l -0.34485,-0.0825 c -4.48577,1.89544 -6.60316,4.0752 -10.25555,6.79607 -6.34055,4.72025 -18.04672,15.029 -25.33621,17.57867 l -0.33476,-0.32406 c -1.48303,-5.41729 6.4827,-27.56947 7.96268,-34.16071 0.54234,-2.41515 0.67777,-3.70833 0.87037,-6.23049 -2.40996,-3.05716 -10.48484,-8.28184 -14.10788,-10.90183 -3.49983,-2.56801 -6.925994,-5.23386 -10.275418,-7.99447 -1.498926,-1.23204 -6.422176,-5.09323 -6.040337,-7.0223 3.377856,-3.13359 29.980955,-2.59247 35.804235,-3.08162 1.55762,-0.13146 4.35431,-0.33323 5.50289,-1.49495 3.85722,-3.90399 8.86026,-30.28423 16.29986,-39.16986 z"
         id="path22"
         style="stroke-width:0.305716" />
      <path
         fill="#24386f"
         d="m 143.80256,294.10837 c 5.95719,-1.02782 6.47965,5.72789 8.13297,9.95594 1.83521,4.69427 3.29745,9.5521 5.23813,14.22955 5.38213,0.12229 22.97426,-1.76398 26.48082,0.64201 0.75817,0.51972 1.29929,1.53469 1.45826,2.42738 1.02415,5.72606 -14.27388,12.20724 -17.21334,16.5637 -1.54692,2.29287 4.1125,17.23626 4.9202,20.69391 0.45796,1.95964 0.89605,4.42371 -0.32559,6.19687 -0.53286,0.7704 -1.42892,1.44297 -2.3748,1.57138 -4.18434,0.56557 -17.89753,-10.33626 -22.04457,-13.21305 l -2.36349,-1.39712 c -5.63435,3.15193 -17.93789,15.37446 -23.67587,14.57348 -0.80801,-0.11312 -1.55854,-0.46775 -2.01222,-1.17089 -0.68481,-1.05778 -0.61541,-2.49465 -0.46316,-3.69611 0.76612,-6.04095 4.42248,-14.62545 5.91927,-21.08217 -3.88901,-3.11219 -17.4946,-11.85873 -18.08891,-16.27327 -0.14858,-1.10057 0.28676,-2.33261 1.02109,-3.1611 0.58912,-0.66035 1.36777,-0.86212 2.20788,-1.01803 2.66432,-0.48915 5.59063,-0.33324 8.30569,-0.39744 4.96881,-0.0795 9.93608,-0.23234 14.89999,-0.46163 2.82298,-7.45641 4.50473,-15.837 7.97216,-22.90302 0.37114,-0.75634 1.33445,-1.54631 2.00549,-2.08039 z"
         id="path23"
         style="stroke-width:0.305716" />
    </g>
  </g>
</svg>
