<?xml version="1.0" encoding="UTF-8" standalone="no"?>
<svg
   width="84.51796"
   height="128.2831"
   viewBox="0 0 84.51796 128.2831"
   version="1.1"
   id="svg37"
   sodipodi:docname="question.svg"
   inkscape:version="1.4.2 (f4327f4, 2025-05-13)"
   xmlns:inkscape="http://www.inkscape.org/namespaces/inkscape"
   xmlns:sodipodi="http://sodipodi.sourceforge.net/DTD/sodipodi-0.dtd"
   xmlns="http://www.w3.org/2000/svg"
   xmlns:svg="http://www.w3.org/2000/svg">
  <defs
     id="defs37" />
  <sodipodi:namedview
     id="namedview37"
     pagecolor="#ffffff"
     bordercolor="#000000"
     borderopacity="0.25"
     inkscape:showpageshadow="2"
     inkscape:pageopacity="0.0"
     inkscape:pagecheckerboard="0"
     inkscape:deskcolor="#d1d1d1"
     inkscape:zoom="1.6446809"
     inkscape:cx="16.720569"
     inkscape:cy="64.754204"
     inkscape:window-width="1920"
     inkscape:window-height="991"
     inkscape:window-x="-9"
     inkscape:window-y="-9"
     inkscape:window-maximized="1"
     inkscape:current-layer="svg37" />
  <g
     id="g40"
     transform="translate(-911.25121,-351.21684)">
    <path
       d="m 951.70836,351.23014 c 14.59488,-0.30174 29.28454,4.50381 37.75593,17.12438 5.5518,8.13724 7.55118,18.18215 5.54263,27.82382 -2.80647,14.04154 -10.08863,19.48634 -21.40012,26.49641 -7.62456,4.72331 -6.26412,8.41024 -7.34941,16.08983 -0.11006,1.54081 -2.39376,5.7444 -4.03546,6.11432 -26.9244,6.03483 -28.5661,-7.0009 -23.29555,-26.00726 6.70435,-12.61996 13.2589,-11.30844 22.10938,-20.67252 6.18463,-6.54538 1.00886,-20.17756 -9.48026,-18.56338 -11.57746,1.78141 -8.35216,12.29223 -13.46373,18.8049 -7.78047,9.91131 -26.46889,4.64994 -26.81129,-8.71994 -0.33935,-9.44907 2.27147,-16.35856 7.86913,-23.44047 8.74959,-11.06906 19.33348,-13.72145 32.55875,-15.05009 z"
       id="path24"
       style="stroke-width:0.305716" />
    <path
       fill="#48a15f"
       d="m 950.11252,357.3304 c 20.30566,-1.88291 40.29949,11.21855 39.257,33.33802 -0.64507,9.85109 -5.82389,18.25216 -14.20051,23.18642 -9.92354,5.84529 -15.5426,9.948 -14.99537,22.21332 0.16508,3.72668 -4.92203,4.41149 -7.76519,4.21888 -4.439,-0.30265 -6.88472,1.2993 -9.66368,-3.01741 -0.69092,-10.60529 0.30571,-18.89631 9.68202,-25.09623 4.66523,-3.14276 10.62975,-6.71352 13.91925,-11.18615 2.85233,-3.83673 4.01711,-8.67102 3.22531,-13.38608 -0.79486,-4.73554 -3.46988,-8.94892 -7.41667,-11.68294 -3.39039,-2.39436 -8.44388,-3.02414 -12.50073,-2.33567 -6.64627,1.00673 -11.65084,6.15376 -13.46373,12.48697 -0.79181,2.76979 -1.10364,5.82817 -2.82176,8.20114 -3.21308,4.43594 -10.18646,3.904 -14.1088,0.76123 -2.21644,-1.77682 -2.92875,-4.47415 -3.17027,-7.20052 0.0887,-5.85722 2.44879,-12.22926 6.13572,-16.77189 8.4347,-9.90978 15.57929,-12.55514 27.88741,-13.72909 z"
       id="path25"
       style="stroke-width:0.305716" />
    <path
       fill="#c1e4c5"
       d="m 930.90133,365.65474 c 0.76735,0.36227 0.41272,0.107 0.92938,1.00183 -0.0948,0.77805 -7.29133,8.35919 -7.55425,10.96206 -0.12534,1.2623 -2.39375,6.28124 -3.23753,7.29713 l -0.81015,-0.35646 c -1.21063,-2.50626 1.19841,-7.15253 2.29899,-9.42156 2.01161,-4.13848 4.59185,-6.95595 8.37356,-9.483 z"
       id="path26"
       style="stroke-width:0.305716" />
    <path
       d="m 948.80712,451.0727 c 3.48516,-0.0642 6.83581,-0.40048 10.162,0.9997 7.43501,3.13053 10.84986,11.32983 7.55118,18.75262 -2.10027,4.72942 -5.4448,6.44143 -9.97857,8.21458 -3.92539,0.83155 -8.11064,0.60838 -11.71809,-1.2626 -3.26505,-1.66921 -5.71689,-4.58574 -6.80524,-8.08925 -2.69336,-8.81379 2.30815,-16.0562 10.78872,-18.61505 z"
       id="path27"
       style="stroke-width:0.305716" />
    <path
       fill="#48a15f"
       d="m 949.27486,456.65508 c 1.22898,-0.12534 3.45154,-0.33323 4.61631,-0.15592 9.19288,1.40018 9.97857,14.28917 1.05472,16.91221 -2.60164,0.77958 -5.06877,0.82849 -7.5573,-0.39437 -2.17364,-1.07306 -3.80922,-2.9899 -4.53071,-5.30417 -1.73952,-5.52429 0.82544,-9.65146 6.41698,-11.05775 z"
       id="path28"
       style="stroke-width:0.305716" />
  </g>
</svg>
