<?xml version="1.0" encoding="UTF-8" standalone="no"?>
<!-- Created with Inkscape (http://www.inkscape.org/) -->

<svg
   width="98.489601mm"
   height="108.33358mm"
   viewBox="0 0 98.4896 108.33358"
   version="1.1"
   id="svg1"
   inkscape:version="1.4.2 (f4327f4, 2025-05-13)"
   sodipodi:docname="tip.svg"
   xmlns:inkscape="http://www.inkscape.org/namespaces/inkscape"
   xmlns:sodipodi="http://sodipodi.sourceforge.net/DTD/sodipodi-0.dtd"
   xmlns="http://www.w3.org/2000/svg"
   xmlns:svg="http://www.w3.org/2000/svg">
  <sodipodi:namedview
     id="namedview1"
     pagecolor="#ffffff"
     bordercolor="#000000"
     borderopacity="0.25"
     inkscape:showpageshadow="2"
     inkscape:pageopacity="0.0"
     inkscape:pagecheckerboard="0"
     inkscape:deskcolor="#d1d1d1"
     inkscape:document-units="mm"
     inkscape:zoom="0.68862935"
     inkscape:cx="253.40192"
     inkscape:cy="257.7584"
     inkscape:window-width="1920"
     inkscape:window-height="991"
     inkscape:window-x="-9"
     inkscape:window-y="-9"
     inkscape:window-maximized="1"
     inkscape:current-layer="layer1">
    <inkscape:page
       x="0"
       y="1.1205541e-22"
       width="98.489601"
       height="108.33358"
       id="page2"
       margin="0"
       bleed="0" />
  </sodipodi:namedview>
  <defs
     id="defs1" />
  <g
     inkscape:label="Layer 1"
     inkscape:groupmode="layer"
     id="layer1"
     transform="translate(-49.134945,-94.649373)">
    <g
       id="g37"
       transform="matrix(0.62759154,0,0,0.62759154,-22.670306,73.400789)">
      <path
         d="m 190.43679,59.691482 c 6.06847,-1.163861 16.077,0.934268 21.91067,2.956885 32.54958,11.286423 43.22213,52.770563 22.78195,79.595913 -4.51542,5.92508 -12.51998,9.83519 -15.87155,16.62942 -1.011,2.05014 -1.98379,6.04034 -2.84132,8.41973 3.54416,4.5139 3.3482,8.06845 0.39896,12.77832 2.39498,5.44449 2.10852,7.32862 -1.15316,12.19959 -2.27423,0.98441 -3.14949,1.25497 -5.58696,1.86579 -2.22225,7.92385 -6.58054,10.56982 -14.06783,12.3283 -8.63831,0.21217 -16.51936,-2.96269 -18.51814,-12.07792 -8.21428,-0.89391 -11.20021,-6.71933 -7.26044,-13.96022 -6.72943,-9.59856 3.57657,-9.20297 -1.66769,-19.55053 -2.44267,-4.81931 -5.58634,-6.6854 -9.77924,-10.03177 -9.55057,-7.62303 -15.2699,-17.7141 -17.28854,-29.72354 l -0.0816,-0.50015 c -2.86364,-18.05865 3.45642,-37.226739 18.09013,-48.483203 9.4023,-7.232017 19.38301,-10.671628 30.93479,-12.446615 z"
         id="path10"
         style="stroke-width:0.305716" />
      <path
         fill="#fbfcf6"
         d="m 175.78841,165.87521 c -2.04279,-16.94767 -12.91925,-16.00637 -21.17909,-28.53614 -13.47932,-20.4469 -8.73736,-48.583168 11.63433,-62.647633 10.71443,-7.394658 23.9076,-10.27756 36.72994,-8.025656 11.8517,2.134815 22.33806,8.968179 29.07726,18.947972 3.30785,4.859967 4.09048,8.099334 5.54263,13.490941 3.46682,12.863306 1.2137,26.837586 -6.579,37.724436 -5.4928,7.67225 -15.20785,11.98896 -18.52333,21.50682 -0.70957,2.03637 -1.18282,4.92233 -1.59707,7.10301 l -5.771,-0.0685 c -0.8988,0.13513 -1.01986,0.12779 -1.93701,0.0884 l -0.28524,-0.5451 c -0.0486,-6.11676 3.31213,-23.87672 6.02322,-29.85347 1.22531,-2.7013 5.88931,-8.45182 7.33015,-11.27603 1.21583,-2.38336 -0.76582,-6.39588 -1.71292,-8.90428 -2.85417,-1.88138 -4.26046,0.46041 -6.5304,2.45948 -0.7435,-2.90522 -1.74962,-6.47781 -2.86854,-9.22314 -1.42035,-1.43198 -2.17883,-1.53133 -3.91163,-0.55427 -1.68908,3.11739 -3.7707,6.74104 -5.32588,9.89175 -1.06664,-2.44083 -3.19504,-7.65176 -4.50167,-9.69303 -1.21981,-0.40599 -1.44542,-0.58759 -2.6316,-0.2993 -0.47233,0.39529 -0.69245,0.53073 -1.04586,1.0376 -1.15132,3.29562 -2.80188,6.40567 -3.95718,9.60132 -1.48854,-2.14399 -3.42127,-5.16568 -5.28797,-6.88656 -0.86854,0.01 -1.79975,-0.16692 -2.34546,0.61357 -2.225,3.18251 -3.78232,9.35767 -4.7921,13.04582 1.4546,2.38887 4.37388,7.07488 5.58727,9.20847 2.44145,4.29409 9.04491,27.76544 7.48668,31.486 -1.0801,0.22959 -1.25649,0.19413 -2.37908,0.13146 z"
         id="path11"
         style="stroke-width:0.305716" />
      <path
         fill="#fed022"
         d="m 175.78841,165.87521 c -2.04279,-16.94767 -12.91925,-16.00637 -21.17909,-28.53614 -13.47932,-20.4469 -8.73736,-48.583168 11.63433,-62.647633 10.71443,-7.394658 23.9076,-10.27756 36.72994,-8.025656 11.8517,2.134815 22.33806,8.968179 29.07726,18.947972 3.30785,4.859967 4.09048,8.099334 5.54263,13.490941 3.46682,12.863306 1.2137,26.837586 -6.579,37.724436 -5.4928,7.67225 -15.20785,11.98896 -18.52333,21.50682 -0.70957,2.03637 -1.18282,4.92233 -1.59707,7.10301 l -5.771,-0.0685 c 0.43871,-9.60162 2.27851,-16.55819 9.85659,-23.01827 9.15528,-7.80462 15.88501,-14.90671 16.58204,-27.737 0.55334,-10.23935 -2.42739,-21.763926 -9.34757,-29.556933 C 216.5,78.624158 206.05001,72.847349 197.40131,72.732399 c -10.60865,-0.14124 -24.16777,4.671341 -31.8284,12.086177 -7.33718,6.565862 -10.5741,16.606184 -11.09321,26.090114 -0.4653,8.50074 2.72576,21.72081 9.1727,27.54562 11.56493,10.44907 16.67131,9.50196 18.38546,27.2448 z"
         id="path12"
         style="stroke-width:0.305716" />
      <path
         fill="#fed022"
         d="m 205.14234,108.11629 c 4.28186,0.16692 9.40627,1.54417 9.39894,6.76366 -2.85417,-1.88138 -4.26046,0.46041 -6.5304,2.45948 -0.7435,-2.90522 -1.74962,-6.47781 -2.86854,-9.22314 z"
         id="path13"
         style="stroke-width:0.305716" />
      <path
         fill="#fed022"
         d="m 191.40316,107.76074 c 1.03454,0.011 2.12656,0.2672 3.17853,0.32375 2.24304,0.12107 4.41301,-0.31122 6.64902,-0.52247 -1.68908,3.11739 -3.7707,6.74104 -5.32588,9.89175 -1.06664,-2.44083 -3.19504,-7.65176 -4.50167,-9.69303 z"
         id="path14"
         style="stroke-width:0.305716" />
      <path
         fill="#fed022"
         d="m 178.48055,111.2138 c 3.22927,-1.20819 5.78047,-2.29929 9.24515,-2.71476 -1.15132,3.29562 -2.80188,6.40567 -3.95718,9.60132 -1.48854,-2.14399 -3.42127,-5.16568 -5.28797,-6.88656 z"
         id="path15"
         style="stroke-width:0.305716" />
      <path
         fill="#fbfcf6"
         d="m 189.77645,114.31988 c 6.00212,13.66611 6.4506,12.16383 12.73888,-0.31336 4.05624,16.12591 5.22927,6.5787 9.22375,6.52214 1.63528,1.21706 -1.53897,4.52735 -2.52796,5.77345 -8.62486,12.64289 -8.1079,19.74589 -10.40902,34.22521 -0.0483,1.69673 -0.14797,3.39192 -0.2993,5.08284 -1.61999,-0.009 -3.42891,0.022 -5.03086,-0.0498 l -4.98928,0.10211 c -1.60685,-15.85718 -2.24212,-24.28027 -10.94983,-38.52052 l -1.90339,-2.39681 c 0.85661,-2.52552 1.67502,-5.06358 2.45459,-7.61386 1.43595,2.35615 3.94038,7.67408 7.00579,7.26809 1.95505,-1.35187 3.76459,-7.55882 4.68663,-10.07945 z"
         id="path16"
         style="stroke-width:0.305716" />
      <path
         fill="#fed022"
         d="m 189.77645,114.31988 c 6.00212,13.66611 6.4506,12.16383 12.73888,-0.31336 4.05624,16.12591 5.22927,6.5787 9.22375,6.52214 1.63528,1.21706 -1.53897,4.52735 -2.52796,5.77345 -4.51054,0.55212 -3.57168,1.05166 -8.09781,-0.17518 -3.78629,1.7594 -6.12441,1.20758 -10.16077,0.17029 -1.54326,0.8667 -3.3745,1.96239 -4.92967,2.74074 -2.4335,-0.7542 -6.4176,-2.72729 -8.49004,-1.89605 l -1.90339,-2.39681 c 0.85661,-2.52552 1.67502,-5.06358 2.45459,-7.61386 1.43595,2.35615 3.94038,7.67408 7.00579,7.26809 1.95505,-1.35187 3.76459,-7.55882 4.68663,-10.07945 z"
         id="path17"
         style="stroke-width:0.305716" />
      <path
         fill="#f8f8e3"
         d="m 193.47194,165.56032 c 0.82054,-0.26719 2.0911,-0.26505 3.13756,-0.45337 -0.0379,-1.952 -0.30632,-7.74837 0.33538,-9.29621 l 0.52399,0.03 c 1.13971,1.58697 -0.1822,2.61937 1.33323,4.68662 -0.0483,1.69673 -0.14797,3.39192 -0.2993,5.08284 -1.61999,-0.009 -3.42891,0.022 -5.03086,-0.0498 z"
         id="path18"
         style="stroke-width:0.305716" />
      <path
         fill="#fbfcf6"
         d="m 175.3708,170.8914 c 13.36529,1.07551 23.34234,0.6203 36.35728,0.50168 l 1.65209,2.90369 c -0.75359,0.87465 -1.70987,1.76643 -2.5402,2.58483 l -14.68017,0.78722 c -2.79027,0.13084 -13.30293,-0.004 -14.52365,2.20635 l 0.42983,0.58606 c 3.10302,1.6582 5.14001,1.17792 8.49035,1.66218 6.25556,0.36961 13.72267,-0.0969 20.08218,-0.27148 1.49128,1.86059 2.72943,2.86242 1.06328,5.03667 -1.30419,0.70651 -2.73891,0.89422 -4.19596,1.02568 -4.70833,0.42433 -29.21941,2.03087 -31.83084,-0.36808 -2.92478,-2.68694 0.98869,-4.96361 0.87007,-7.7441 -0.0896,-2.09323 -3.14888,-3.42952 -3.0645,-5.86883 0.0462,-1.33475 1.00947,-2.1715 1.89024,-3.04187 z"
         id="path19"
         style="stroke-width:0.305716" />
      <path
         fill="#fbfcf6"
         d="m 182.78839,194.38751 c 6.69365,0.0731 13.78779,-0.16234 20.39309,0.0786 l 0.1336,0.28095 c -0.57964,1.32192 -1.08621,1.78294 -2.03332,2.83093 -0.25588,0.22379 -0.51849,0.43931 -0.78813,0.64628 -2.32834,1.78049 -5.9795,2.38795 -8.81777,1.95384 -4.36012,-0.66708 -6.343,-2.52155 -8.88747,-5.79057 z"
         id="path20"
         style="stroke-width:0.305716" />
      <path
         fill="#fed022"
         d="m 191.48173,33.919287 c 4.98867,-0.634025 5.12869,3.719371 5.21338,7.57231 0.0718,3.26627 0.3479,7.568305 -2.23112,9.956864 l -0.31183,0.0089 c -4.89604,0.106084 -5.25526,-4.419125 -5.19503,-8.336875 0.0474,-3.081006 0.18924,-6.933884 2.5246,-9.201165 z"
         id="path29"
         style="stroke-width:0.305716" />
      <path
         fill="#fed022"
         d="m 122.93256,108.01601 c 2.05563,-0.14705 11.92231,-0.82788 8.86546,4.89727 -1.06787,1.99969 -5.47935,2.11402 -7.81777,2.22744 -2.31427,0.25497 -6.87036,0.75023 -8.30264,-1.01467 -4.6157,-5.68784 4.70925,-6.04737 7.25495,-6.11004 z"
         id="path30"
         style="stroke-width:0.305716" />
      <path
         fill="#fed022"
         d="m 126.06462,69.647429 c 2.92142,-0.123509 4.52704,1.20605 7.02199,2.514514 3.23723,1.697947 10.71076,6.022605 4.94985,9.67316 -3.33322,0.108224 -6.92263,-2.330779 -9.74898,-4.024445 -3.42127,-2.04952 -6.28766,-4.84193 -2.22286,-8.163229 z"
         id="path31"
         style="stroke-width:0.305716" />
      <path
         fill="#fed022"
         d="m 256.76188,108.29574 c 3.73585,-0.25986 16.54535,-1.1608 14.32891,5.23356 -0.41272,1.19137 -1.59584,1.72454 -2.65056,2.16294 -2.78507,0.27667 -7.55424,-0.0278 -10.31792,-0.46653 -4.80891,-0.76368 -6.11737,-4.50686 -1.36043,-6.92997 z"
         id="path32"
         style="stroke-width:0.305716" />
      <path
         fill="#fed022"
         d="m 244.98875,143.65486 c 2.98074,0.0416 17.82936,8.22651 10.53192,13.23077 -4.00794,0.39101 -8.90856,-4.21735 -11.31761,-7.11829 -1.95964,-2.36135 -1.72118,-4.39833 0.78569,-6.11248 z"
         id="path33"
         style="stroke-width:0.305716" />
      <path
         fill="#fed022"
         d="m 257.42834,70.007257 c 2.77284,-0.49098 5.75357,1.257104 4.52154,3.977059 -1.40935,3.111272 -8.1565,6.478428 -11.38487,7.739812 -5.21551,0.563129 -5.9156,-3.621511 -2.26229,-6.372344 2.71475,-2.044629 6.11432,-3.707112 9.12562,-5.344527 z"
         id="path34"
         style="stroke-width:0.305716" />
      <path
         fill="#fed022"
         d="m 139.31588,143.36962 c 5.71842,0.10517 3.83337,4.75022 1.03638,7.31701 -2.52858,2.32008 -5.06144,4.6533 -8.29133,5.94648 -11.18676,-2.18312 3.92968,-11.54689 7.25495,-13.26349 z"
         id="path35"
         style="stroke-width:0.305716" />
      <path
         fill="#fed022"
         d="m 150.52068,46.457342 c 2.99449,-0.02293 5.28797,2.864865 6.8728,5.156206 2.17181,3.140315 5.35767,7.221012 1.06083,10.058668 -2.9902,-0.02171 -5.51022,-3.149181 -7.05592,-5.476291 -1.99235,-2.999991 -4.83001,-7.07916 -0.87771,-9.738583 z"
         id="path36"
         style="stroke-width:0.305716" />
      <path
         fill="#fed022"
         d="m 234.03189,46.464373 c 9.11951,0.146133 -1.14032,13.266546 -4.974,15.268986 -8.83121,-0.928154 1.4491,-13.240866 4.974,-15.268986 z"
         id="path37"
         style="stroke-width:0.305716" />
    </g>
  </g>
</svg>
