<?xml version="1.0" encoding="UTF-8" standalone="no"?>
<!-- Created with Inkscape (http://www.inkscape.org/) -->

<svg
   width="39.362232mm"
   height="35.956009mm"
   viewBox="0 0 39.362232 35.956009"
   version="1.1"
   id="svg1"
   inkscape:version="1.4.2 (f4327f4, 2025-05-13)"
   sodipodi:docname="warning.svg"
   xmlns:inkscape="http://www.inkscape.org/namespaces/inkscape"
   xmlns:sodipodi="http://sodipodi.sourceforge.net/DTD/sodipodi-0.dtd"
   xmlns="http://www.w3.org/2000/svg"
   xmlns:svg="http://www.w3.org/2000/svg">
  <sodipodi:namedview
     id="namedview1"
     pagecolor="#ffffff"
     bordercolor="#000000"
     borderopacity="0.25"
     inkscape:showpageshadow="2"
     inkscape:pageopacity="0.0"
     inkscape:pagecheckerboard="0"
     inkscape:deskcolor="#d1d1d1"
     inkscape:document-units="mm"
     inkscape:zoom="0.68862935"
     inkscape:cx="58.81248"
     inkscape:cy="90.76"
     inkscape:window-width="1920"
     inkscape:window-height="991"
     inkscape:window-x="-9"
     inkscape:window-y="-9"
     inkscape:window-maximized="1"
     inkscape:current-layer="layer1" />
  <defs
     id="defs1" />
  <g
     inkscape:label="Layer 1"
     inkscape:groupmode="layer"
     id="layer1"
     transform="translate(-89.429169,-124.61875)">
    <g
       id="g39"
       transform="matrix(0.26458333,0,0,0.26458333,-146.18555,122.43243)">
      <path
         d="m 965.67556,8.2632399 c 14.35336,1.316413 25.07788,29.7690951 32.39061,40.0870101 0.75512,1.395288 1.83124,2.863642 2.54053,4.262599 11.8067,23.378713 28.9757,44.168624 37.8965,68.944461 1.6815,4.67287 0.694,12.88043 -3.4546,16.17849 -6.8449,5.44205 -18.8902,4.35431 -27.2331,5.11646 -14.99848,1.06665 -30.19256,0.75451 -45.16042,0.52583 -18.82905,0.63803 -38.7067,1.77377 -57.31869,-0.98532 -2.87679,-0.42617 -7.03147,-2.13726 -9.36408,-3.92478 -2.9899,-2.25435 -4.93731,-5.62915 -5.38672,-9.34788 -1.11892,-9.37814 10.88349,-28.02896 15.26746,-36.895945 3.17945,-6.435322 7.65819,-14.652357 11.23201,-20.978538 6.72575,-11.837323 13.77862,-23.486631 21.14943,-34.934473 4.13022,-6.560054 7.59398,-13.154959 12.4029,-19.232288 5.26443,-6.647794 6.94586,-7.8180748 15.03817,-8.8156261 z"
         id="path2"
         style="stroke-width:0.305716" />
      <path
         fill="#e33e36"
         d="m 962.75903,14.339957 c 0.22317,-0.02201 0.44328,-0.04188 0.6634,-0.05962 6.19381,-0.497705 9.17759,4.022306 12.39984,8.537425 8.36439,11.715343 14.9006,24.833311 21.68444,37.515022 2.84319,5.210318 5.75659,10.383644 8.73739,15.51845 5.4723,9.447541 12.2072,19.258274 17.3799,28.909736 3.2528,6.97705 7.8783,14.12805 8.9758,21.82965 0.6665,4.66613 -2.9776,7.90489 -7.3005,8.38822 -13.4025,1.49801 -27.15365,1.99786 -40.64489,2.52766 -6.23355,0.24488 -12.75753,-0.5784 -19.13477,-0.26475 -6.04095,-0.37479 -14.74468,0.42036 -21.05466,0.65057 -10.23843,0.37297 -20.24451,0.35646 -30.47988,-0.56558 -3.80923,-0.50473 -8.11371,-0.68908 -11.68447,-2.17731 -11.46741,-4.77864 -3.55853,-16.27509 0.18343,-23.13811 l 7.81716,-14.544742 c 3.42707,-6.482402 6.59123,-13.093511 10.12225,-19.528527 7.1293,-13.003936 14.57349,-25.611663 22.42733,-38.191265 4.55823,-7.297747 8.4989,-15.139362 14.16994,-21.732739 1.69978,-1.977066 3.37204,-2.739521 5.73829,-3.674095 z"
         id="path3"
         style="stroke-width:0.305716" />
      <path
         d="m 963.1106,24.731244 c 2.02384,-0.138795 3.86119,0.173035 5.26749,1.756644 5.68937,6.406279 10.1192,14.791763 14.40533,22.197427 l 17.18124,30.052494 c 6.30084,10.96267 12.85844,21.965081 18.95134,33.024971 1.5347,3.53989 4.2311,7.65605 4.387,11.5475 0.1468,3.63711 -2.4518,5.19015 -5.6741,5.57474 -7.0345,0.83888 -14.2677,0.65698 -21.36951,0.75878 l -29.47714,0.67044 c -7.07733,0.75512 -16.60344,0.36166 -23.96508,0.14307 -10.15588,-0.30113 -22.22249,0.39866 -32.15215,-1.48639 -1.28401,-0.24396 -3.52491,-1.1446 -4.07519,-2.38428 -0.86518,-1.95016 -0.9355,-3.32588 -0.28126,-5.31915 1.91684,-5.81655 4.97705,-10.92873 7.77741,-16.28885 4.88534,-9.355219 10.28123,-18.217009 15.4142,-27.457275 8.68845,-15.641653 16.81744,-31.854995 26.87855,-46.684056 1.80067,-2.650557 3.8826,-4.649023 6.73187,-6.106065 z"
         id="path4"
         style="stroke-width:0.305716" />
      <path
         fill="#fbfcf6"
         d="m 963.97883,28.49155 c 4.05685,1.795165 24.65294,39.941796 28.61808,46.865346 l 13.03879,22.800299 c 3.5524,6.165375 11.4399,19.050995 13.1336,25.630925 -4.9374,0.89086 -15.4601,0.96973 -20.85599,1.11403 -11.04246,0.26383 -22.08187,0.5833 -33.11822,0.95903 -6.50869,0.11464 -14.46342,0.0938 -20.91708,0.10883 -7.83245,0.018 -27.65507,0.81199 -34.36554,-1.28309 6.71658,-14.90243 16.71349,-31.77092 24.75077,-46.041437 5.36531,-9.527333 22.8431,-43.970826 29.71559,-50.153933 z"
         id="path5"
         style="stroke-width:0.305716" />
      <path
         d="m 963.22371,49.530926 c 4.3106,-0.323754 6.88473,0.497399 10.25983,3.033925 0.28126,0.540506 0.55029,1.090183 0.74595,1.668598 1.60807,4.765501 -0.37603,37.288181 -2.83704,41.556893 -1.13421,1.970645 -2.91959,2.434722 -4.95872,2.989597 -4.15468,-0.05809 -5.15437,-0.176704 -8.65787,-2.379999 -0.73067,-1.244264 -1.13421,-2.482414 -1.43993,-3.882288 -1.25343,-5.740123 -4.12716,-35.924381 -1.31763,-39.8137 1.68449,-2.33567 5.55486,-2.883513 8.20541,-3.173026 z"
         id="path6"
         style="stroke-width:0.305716" />
      <path
         fill="#e33e36"
         d="m 963.28486,54.743383 c 1.09446,-0.169672 6.13572,0.195964 6.14183,1.437477 0.0642,11.016782 -0.52277,25.714384 -2.2837,36.610408 -0.59003,0.673492 -1.25955,0.655455 -2.17669,0.818708 -1.2779,-0.118618 -2.03302,-0.107918 -3.19779,-0.701313 -1.49496,-1.81045 -3.58911,-33.213292 -3.41485,-37.385092 1.88015,-0.418526 3.00824,-0.579638 4.9312,-0.780188 z"
         id="path7"
         style="stroke-width:0.305716" />
      <path
         d="m 963.09226,101.27672 c 5.25525,-0.91654 10.25065,2.61754 11.13417,7.87647 0.88658,5.25893 -2.67807,10.23384 -7.9425,11.08801 -5.21857,0.84684 -10.14366,-2.68082 -11.02106,-7.89573 -0.87741,-5.2149 2.61999,-10.16016 7.82939,-11.06875 z"
         id="path8"
         style="stroke-width:0.305716" />
      <path
         fill="#e33e36"
         d="m 963.1748,105.89854 c 1.68755,-0.52798 3.53102,-0.10456 4.82114,1.10822 1.28707,1.21277 1.82207,3.02628 1.40018,4.7444 -0.42494,1.71843 -1.74258,3.07459 -3.44848,3.54814 -2.57718,0.7163 -5.25525,-0.76826 -6.01343,-3.33536 -0.75512,-2.56679 0.6848,-5.26687 3.24059,-6.0654 z"
         id="path9"
         style="stroke-width:0.305716" />
    </g>
  </g>
</svg>
